<svg viewBox="0 0 1440 320"
    xmlns="http://www.w3.org/2000/svg">
    <path fill="#003c77" fill-opacity="1" d="M 0 34.909 L 48 70.545 C 96 106.182 192 177.455 288 189.37 C 384 200.841 480 154.068 576 106.182 C 672 58.295 768 11.523 864 34.909 C 960 58.295 1056 154.068 1152 159.636 C 1248 165.205 1344 82.795 1392 40.811 L 1439.987 14.256 L 1440 320 L 1392 320 C 1344 320 1248 320 1152 320 C 1056 320 960 320 864 320 C 768 320 672 320 576 320 C 480 320 384 320 288 320 C 192 320 96 320 48 320 L 0 320 L 0 34.909 Z" style=""></path>
</svg>